# xmcd CD database file generated by Grip 2.2
# 
# Track frame offsets:
#       150
#       17935
#       36180
#       65147
#       83142
#       100642
#       115120
#       134790
#       149645
#       171145
# 
# Disc length: 2679 seconds
# 
# Revision: 3
# Processed by: cddbd v1.4b41PL1 Copyright (c) Steve Scherf et al.
# Submitted via: Grip 2.2
# 
DISCID=910a750a
DTITLE=Charlie Daniels - A.R.E. Tailgate Party
DYEAR=1900
DGENRE=
TTITLE0=THe South's Gonna Do It
TTITLE1=Pride and Joy
TTITLE2=Can't You See
TTITLE3=Let Her Cry
TTITLE4=Homesick
TTITLE5=Keep Your Hands to Yourself
TTITLE6=Statesboro Blues
TTITLE7=Peach Country Jamboree
TTITLE8=Sharp Dressed Man
TTITLE9=Freebird
EXTD=
EXTT0=
EXTT1=
EXTT2=
EXTT3=
EXTT4=
EXTT5=
EXTT6=
EXTT7=
EXTT8=
EXTT9=
PLAYORDER=
